# Blender v2.64 (sub 0) OBJ File: 'terra.blend'
# www.blender.org
o Cube_Cube.001
v 0.248499 -0.409004 -0.436152
v -0.239440 -0.409004 -0.436152
v -0.239440 -1.171414 -0.436152
v 0.248499 -1.171414 -0.436152
v -0.391320 -0.409004 -0.284272
v -0.391320 -0.409004 0.203667
v -0.391320 -1.171414 0.203667
v -0.391320 -1.171414 -0.284272
v -0.585114 -0.570895 -0.403710
v -0.585114 -0.570895 0.323106
v -0.585114 0.564764 0.323106
v -0.585114 0.564764 -0.403710
v 0.367938 -0.570895 -0.629946
v -0.358878 -0.570895 -0.629946
v -0.358878 0.564764 -0.629946
v 0.367938 0.564764 -0.629946
v 0.367938 -0.613707 -0.403710
v 0.367938 -0.613707 0.323106
v -0.358878 -0.613707 0.323106
v -0.358878 -0.613707 -0.403710
v -0.358878 -0.570895 0.549342
v 0.367938 -0.570895 0.549342
v 0.367938 0.564764 0.549342
v -0.358878 0.564764 0.549342
v -0.358878 0.607576 -0.403710
v -0.358878 0.607576 0.323106
v 0.367938 0.607576 0.323106
v 0.367938 0.607576 -0.403710
v 0.594174 -0.570895 0.323106
v 0.594174 -0.570895 -0.403710
v 0.594174 0.564764 -0.403710
v 0.594174 0.564764 0.323106
v 0.248499 -1.200155 -0.284272
v 0.248499 -1.200155 0.203667
v -0.239440 -1.200155 0.203667
v -0.239440 -1.200155 -0.284272
v -0.239440 -1.171414 0.355548
v 0.248499 -1.171414 0.355548
v 0.248499 -0.409004 0.355548
v -0.239440 -0.409004 0.355548
v -0.239440 -0.380263 -0.284272
v -0.239440 -0.380263 0.203667
v 0.248499 -0.380263 0.203667
v 0.248499 -0.380263 -0.284272
v 0.400380 -1.171414 0.203667
v 0.400380 -1.171414 -0.284272
v 0.400380 -0.409004 -0.284272
v 0.400380 -0.409004 0.203667
v -0.812094 0.052775 -0.094985
v -0.812094 0.052775 0.014380
v 0.821154 0.052775 0.014380
v 0.821154 0.052775 -0.094985
v -0.812094 -0.058906 -0.094985
v -0.812094 -0.058906 0.014380
v 0.821154 -0.058906 0.014380
v 0.821154 -0.058906 -0.094985
v 2.712943 0.714618 -0.374964
v 0.704475 0.714618 -0.374964
v 2.712943 -0.720749 0.294359
v 0.704475 -0.720749 0.294359
v -2.703884 -0.720749 0.294359
v -0.695415 -0.720749 0.294359
v -2.703884 0.714618 -0.374964
v -0.695415 0.714618 -0.374964
v 2.712943 0.714618 -0.374964
v 0.704475 0.714618 -0.374964
v 2.712943 -0.720749 0.294359
v 0.704475 -0.720749 0.294359
v -2.703884 -0.720749 0.294359
v -0.695415 -0.720749 0.294359
v -2.703884 0.714618 -0.374964
v -0.695415 0.714618 -0.374964
v 0.239003 -0.296131 -0.163294
v 0.239003 -0.296131 -0.104593
v 0.180303 -0.296131 -0.104593
v 0.180303 -0.296131 -0.163294
v 0.239003 0.792996 -0.163294
v 0.239003 0.792996 -0.104593
v 0.180303 0.792996 -0.104593
v 0.180303 0.792996 -0.163294
v 0.043685 1.094793 -0.289242
v 0.043685 1.094793 -0.230542
v 0.102385 1.094793 -0.230542
v 0.102385 1.094793 -0.289242
v 0.043685 0.005666 -0.289242
v 0.043685 0.005666 -0.230542
v 0.102385 0.005666 -0.230542
v 0.102385 0.005666 -0.289242
v -0.136037 0.357763 -0.289242
v -0.136037 0.357763 -0.230542
v -0.194737 0.357763 -0.230542
v -0.194737 0.357763 -0.289242
v -0.136037 1.446890 -0.289242
v -0.136037 1.446890 -0.230542
v -0.194737 1.446890 -0.230542
v -0.194737 1.446890 -0.289242
v 0.000581 0.055966 -0.163294
v 0.000581 0.055966 -0.104593
v -0.058120 0.055966 -0.104593
v -0.058120 0.055966 -0.163294
v 0.000581 1.145092 -0.163294
v 0.000581 1.145092 -0.104593
v -0.058120 1.145092 -0.104593
v -0.058120 1.145092 -0.163294
vt 0.549234 0.642408
vt 0.322721 0.642408
vt 0.322721 0.416331
vt 0.549234 0.416331
vt 0.602153 0.414213
vt 0.602153 0.215152
vt 0.924914 0.414213
vt 0.924914 0.215152
vt 0.613879 0.215152
vt 0.613879 0.414213
vt 0.295918 0.207949
vt 0.506993 0.207949
vt 0.506993 0.419023
vt 0.295918 0.419023
vt 0.510394 0.601255
vt 0.787734 0.601255
vt 0.787734 0.324448
vt 0.510394 0.324448
vt 0.679924 0.166426
vt 0.679924 0.462940
vt 0.216617 0.462939
vt 0.216617 0.166426
vt 0.697390 0.166426
vt 0.697390 0.462940
vt 0.199152 0.462939
vt 0.199152 0.166426
vt 0.604680 0.464336
vt 0.267275 0.464336
vt 0.267275 0.127580
vt 0.604680 0.127580
vt 0.679924 0.555235
vt 0.874062 0.601255
vt 0.874062 0.324448
vt 0.216617 0.555235
vt 0.424066 0.324448
vt 0.424066 0.601255
vt 0.162251 0.464336
vt 0.162251 0.127580
vt 0.679924 0.074130
vt 0.709704 0.127580
vt 0.709704 0.464336
vt 0.216617 0.074130
vt 0.506993 0.484725
vt 0.295918 0.484725
vt 0.619740 0.642408
vt 0.619740 0.416331
vt 0.613879 0.476175
vt 0.252215 0.416331
vt 0.252215 0.642408
vt 0.230217 0.419023
vt 0.230217 0.207949
vt 0.295918 0.142248
vt 0.506993 0.142248
vt 0.572694 0.207949
vt 0.572694 0.419023
vt 0.613879 0.153190
vt 0.924914 0.476175
vt 0.936639 0.414213
vt 0.000000 0.000000
vt 1.000000 0.000000
vt 1.000000 1.000000
vt 0.000000 1.000000
vt 0.245858 1.000000
vt 0.245858 0.657886
vt 0.742221 0.657886
vt 0.742221 1.000000
vt 0.441477 0.408424
vt 0.465444 0.408424
vt 0.465444 0.780785
vt 0.441477 0.780785
vn 1.000000 0.000000 0.000000
vn 0.000000 1.000000 0.000000
vn 0.000000 0.000000 1.000000
vn 0.000000 -1.000000 0.000000
vn 0.000000 0.000000 -1.000000
vn -1.000000 -0.000000 0.000000
vn -0.185934 -0.982562 0.000000
vn -0.707107 0.000000 0.707107
vn -0.185934 0.982562 0.000000
vn -0.707107 0.000000 -0.707107
vn 0.000000 -0.982562 -0.185934
vn 0.000000 0.982562 -0.185934
vn 0.707107 0.000000 -0.707107
vn 0.185934 -0.982562 0.000000
vn 0.000000 -0.982562 0.185934
vn 0.707107 0.000000 0.707107
vn 0.000000 0.982562 0.185934
vn 0.185934 0.982562 0.000000
vn -0.182801 0.966006 -0.182801
vn -0.182801 0.966006 0.182801
vn 0.182801 0.966006 0.182801
vn 0.182801 0.966006 -0.182801
vn -0.182801 -0.966006 -0.182801
vn -0.182801 -0.966006 0.182801
vn 0.182801 -0.966006 0.182801
vn 0.182801 -0.966006 -0.182801
vn 0.000000 -0.422618 -0.906308
vn -0.000000 0.422618 0.906308
s off
f 45/1/1 46/2/1 47/3/1 48/4/1
f 41/5/2 42/5/2 43/6/2 44/6/2
f 37/7/3 38/8/3 39/9/3 40/10/3
f 33/11/4 34/12/4 35/13/4 36/14/4
f 2/10/5 1/9/5 4/8/5 3/7/5
f 8/2/6 7/1/6 6/4/6 5/3/6
f 9/15/6 10/16/6 11/17/6 12/18/6
f 13/19/5 14/20/5 15/21/5 16/22/5
f 17/23/4 18/23/4 19/24/4 20/24/4
f 21/20/3 22/19/3 23/22/3 24/21/3
f 25/25/2 26/25/2 27/26/2 28/26/2
f 29/27/1 30/28/1 31/29/1 32/30/1
f 20/24/7 19/24/7 10/31/7 9/31/7
f 21/32/8 24/33/8 11/17/8 10/16/8
f 26/25/9 25/25/9 12/34/9 11/34/9
f 15/35/10 14/36/10 9/15/10 12/18/10
f 17/23/11 20/24/11 14/20/11 13/19/11
f 25/25/12 28/26/12 16/22/12 15/21/12
f 31/29/13 30/28/13 13/37/13 16/38/13
f 30/39/14 29/39/14 18/23/14 17/23/14
f 22/19/15 21/20/15 19/24/15 18/23/15
f 29/27/16 32/30/16 23/40/16 22/41/16
f 27/26/17 26/25/17 24/21/17 23/22/17
f 32/42/18 31/42/18 28/26/18 27/26/18
f 15/21/19 12/34/19 25/25/19
f 26/25/20 11/34/20 24/21/20
f 27/26/21 23/22/21 32/42/21
f 31/42/22 16/22/22 28/26/22
f 14/20/23 20/24/23 9/31/23
f 21/20/24 10/31/24 19/24/24
f 22/19/25 18/23/25 29/39/25
f 30/39/26 17/23/26 13/19/26
f 36/14/7 35/13/7 7/43/7 8/44/7
f 37/45/8 40/46/8 6/4/8 7/1/8
f 42/5/9 41/5/9 5/47/9 6/47/9
f 2/48/10 3/49/10 8/2/10 5/3/10
f 33/11/11 36/14/11 3/50/11 4/51/11
f 1/9/12 2/10/12 41/5/12 44/6/12
f 4/49/13 1/48/13 47/3/13 46/2/13
f 46/52/14 45/53/14 34/12/14 33/11/14
f 38/54/15 37/55/15 35/13/15 34/12/15
f 45/1/16 48/4/16 39/46/16 38/45/16
f 43/6/17 42/5/17 40/10/17 39/9/17
f 48/56/18 47/56/18 44/6/18 43/6/18
f 2/10/19 5/47/19 41/5/19
f 42/5/20 6/47/20 40/10/20
f 43/6/21 39/9/21 48/56/21
f 47/56/22 1/9/22 44/6/22
f 3/50/23 36/14/23 8/44/23
f 37/7/24 7/57/24 35/58/24
f 38/54/25 34/12/25 45/53/25
f 46/52/26 33/11/26 4/51/26
f 53/59/6 54/60/6 50/61/6 49/62/6
f 54/59/3 55/60/3 51/61/3 50/62/3
f 55/59/1 56/60/1 52/61/1 51/62/1
f 56/59/5 53/60/5 49/61/5 52/62/5
f 49/59/2 50/60/2 51/61/2 52/62/2
f 56/59/4 55/60/4 54/61/4 53/62/4
f 59/63/27 60/64/27 58/65/27 57/66/27
f 63/63/27 64/64/27 62/65/27 61/66/27
f 67/63/28 65/64/28 66/65/28 68/66/28
f 71/63/28 69/64/28 70/65/28 72/66/28
f 100/67/6 99/68/6 103/69/6 104/70/6
f 99/67/3 98/68/3 102/69/3 103/70/3
f 98/67/1 97/68/1 101/69/1 102/70/1
f 97/67/5 100/68/5 104/69/5 101/70/5
f 104/67/2 103/68/2 102/69/2 101/70/2
f 97/67/4 98/68/4 99/69/4 100/70/4
f 73/67/4 74/68/4 75/69/4 76/70/4
f 80/67/2 79/68/2 78/69/2 77/70/2
f 73/67/5 76/68/5 80/69/5 77/70/5
f 74/67/1 73/68/1 77/69/1 78/70/1
f 75/67/3 74/68/3 78/69/3 79/70/3
f 76/67/6 75/68/6 79/69/6 80/70/6
f 85/67/6 86/68/6 82/69/6 81/70/6
f 86/67/3 87/68/3 83/69/3 82/70/3
f 87/67/1 88/68/1 84/69/1 83/70/1
f 88/67/5 85/68/5 81/69/5 84/70/5
f 81/67/2 82/68/2 83/69/2 84/70/2
f 88/67/4 87/68/4 86/69/4 85/70/4
f 89/67/4 90/68/4 91/69/4 92/70/4
f 96/67/2 95/68/2 94/69/2 93/70/2
f 89/67/5 92/68/5 96/69/5 93/70/5
f 90/67/1 89/68/1 93/69/1 94/70/1
f 91/67/3 90/68/3 94/69/3 95/70/3
f 92/67/6 91/68/6 95/69/6 96/70/6
