# Blender v2.64 (sub 0) OBJ File: 'terra.blend'
# www.blender.org
o Circle
v 0.000000 -0.000000 -0.000000
v 1.115203 -0.500000 -0.000000
v 1.115202 -0.490392 -0.097545
v 1.115202 -0.461940 -0.191342
v 1.115203 -0.415735 -0.277785
v 1.115203 -0.353553 -0.353553
v 1.115203 -0.277785 -0.415735
v 1.115203 -0.191342 -0.461940
v 1.115203 -0.097545 -0.490393
v 1.115203 0.000000 -0.500000
v 1.115203 0.097545 -0.490393
v 1.115203 0.191342 -0.461940
v 1.115203 0.277785 -0.415735
v 1.115203 0.353554 -0.353553
v 1.115202 0.415735 -0.277785
v 1.115202 0.461940 -0.191342
v 1.115203 0.490393 -0.097545
v 1.115202 0.500000 0.000000
v 1.115202 0.490393 0.097545
v 1.115202 0.461940 0.191342
v 1.115202 0.415735 0.277785
v 1.115203 0.353553 0.353554
v 1.115203 0.277785 0.415735
v 1.115203 0.191342 0.461940
v 1.115203 0.097545 0.490393
v 1.115202 -0.000000 0.500000
v 1.115203 -0.097546 0.490393
v 1.115203 -0.191342 0.461940
v 1.115203 -0.277785 0.415735
v 1.115203 -0.353554 0.353553
v 1.115203 -0.415735 0.277785
v 1.115203 -0.461940 0.191341
v 1.115203 -0.490393 0.097544
v 1.115203 -0.370546 -0.000000
v 1.115203 -0.363426 -0.072290
v 1.115203 -0.342340 -0.141802
v 1.115203 -0.308098 -0.205864
v 1.115202 -0.262016 -0.262016
v 1.115203 -0.205864 -0.308098
v 1.115203 -0.141802 -0.342340
v 1.115203 -0.072290 -0.363426
v 1.115203 0.000000 -0.370546
v 1.115203 0.072290 -0.363426
v 1.115203 0.141802 -0.342340
v 1.115203 0.205865 -0.308098
v 1.115203 0.262016 -0.262016
v 1.115203 0.308098 -0.205864
v 1.115203 0.342340 -0.141802
v 1.115203 0.363426 -0.072290
v 1.115203 0.370546 0.000000
v 1.115203 0.363426 0.072290
v 1.115203 0.342340 0.141802
v 1.115203 0.308098 0.205865
v 1.115203 0.262016 0.262016
v 1.115203 0.205864 0.308098
v 1.115203 0.141802 0.342340
v 1.115203 0.072290 0.363426
v 1.115203 -0.000000 0.370546
v 1.115202 -0.072290 0.363426
v 1.115203 -0.141802 0.342340
v 1.115203 -0.205865 0.308098
v 1.115203 -0.262016 0.262015
v 1.115203 -0.308098 0.205864
v 1.115203 -0.342340 0.141801
v 1.115203 -0.363426 0.072289
v 1.006031 -0.370546 -0.000000
v 1.006031 -0.363426 -0.072290
v 1.006031 -0.342340 -0.141802
v 1.006031 -0.308098 -0.205864
v 1.006031 -0.262016 -0.262016
v 1.006031 -0.205864 -0.308098
v 1.006031 -0.141802 -0.342340
v 1.006031 -0.072290 -0.363426
v 1.006031 0.000000 -0.370546
v 1.006031 0.072290 -0.363426
v 1.006031 0.141802 -0.342340
v 1.006031 0.205864 -0.308098
v 1.006031 0.262016 -0.262016
v 1.006031 0.308098 -0.205864
v 1.006031 0.342340 -0.141802
v 1.006031 0.363426 -0.072290
v 1.006031 0.370546 0.000000
v 1.006031 0.363426 0.072290
v 1.006031 0.342340 0.141802
v 1.006031 0.308098 0.205865
v 1.006031 0.262016 0.262016
v 1.006031 0.205864 0.308098
v 1.006031 0.141802 0.342340
v 1.006031 0.072290 0.363426
v 1.006031 -0.000000 0.370546
v 1.006031 -0.072290 0.363426
v 1.006031 -0.141802 0.342340
v 1.006031 -0.205865 0.308097
v 1.006031 -0.262016 0.262015
v 1.006031 -0.308098 0.205864
v 1.006031 -0.342340 0.141801
v 1.006031 -0.363426 0.072289
v 1.115203 -0.500000 -0.000000
v 1.115203 -0.986215 -0.000000
v 1.115203 -0.500000 -0.000000
v 0.000000 -0.000000 -0.000000
v 1.115203 -0.986215 -0.000000
v 0.000000 -0.000000 -0.000000
vn 1.000000 -0.000000 -0.000001
vn 1.000000 0.000001 -0.000001
vn 1.000000 0.000002 0.000002
vn 1.000000 0.000002 0.000000
vn 1.000000 0.000001 0.000000
vn 1.000000 -0.000001 0.000000
vn 1.000000 0.000002 0.000001
vn 1.000000 -0.000002 0.000001
vn 1.000000 0.000003 0.000000
vn 1.000000 0.000001 -0.000002
vn 1.000000 0.000000 -0.000000
vn 1.000000 0.000000 -0.000002
vn 1.000000 -0.000000 0.000002
vn 1.000000 0.000002 -0.000001
vn 1.000000 0.000001 0.000001
vn 1.000000 -0.000001 0.000001
vn 1.000000 -0.000002 -0.000001
vn 0.685690 0.713889 -0.142003
vn 0.685690 0.672475 -0.278542
vn 0.729820 0.631550 -0.261605
vn 0.729820 0.670461 -0.133335
vn 0.685690 0.278542 -0.672475
vn 0.685690 0.142003 -0.713889
vn 0.729820 0.133366 -0.670461
vn 0.729820 0.261605 -0.631550
vn 0.685690 -0.404370 -0.605213
vn 0.685690 -0.514664 -0.514695
vn 0.729820 -0.483383 -0.483383
vn 0.729820 -0.379772 -0.568377
vn 0.685690 -0.727866 0.000000
vn 0.685690 -0.713889 0.142003
vn 0.729820 -0.670461 0.133335
vn 0.729820 -0.683584 0.000000
vn 0.685690 -0.404370 0.605213
vn 0.685690 -0.278542 0.672475
vn 0.729820 -0.261605 0.631550
vn 0.729820 -0.379772 0.568377
vn 0.685690 0.278542 0.672475
vn 0.685690 0.404370 0.605213
vn 0.729820 0.379772 0.568377
vn 0.729820 0.261605 0.631550
vn 0.685690 0.713889 0.142003
vn 0.685690 0.727866 0.000000
vn 0.729820 0.683584 0.000000
vn 0.729820 0.670461 0.133335
vn 0.685690 0.404370 -0.605213
vn 0.729820 0.379772 -0.568377
vn 0.685690 -0.278542 -0.672475
vn 0.729820 -0.261605 -0.631550
vn 0.685690 -0.713889 -0.142003
vn 0.729820 -0.670461 -0.133335
vn 0.685690 -0.514664 0.514664
vn 0.729820 -0.483383 0.483383
vn 0.685690 0.142003 0.713889
vn 0.729820 0.133335 0.670461
vn 0.685690 0.672475 0.278542
vn 0.729820 0.631550 0.261605
vn 0.685690 0.514695 -0.514664
vn 0.729820 0.483383 -0.483383
vn 0.685690 -0.142003 -0.713889
vn 0.729820 -0.133335 -0.670461
vn 0.685690 -0.672475 -0.278542
vn 0.729820 -0.631550 -0.261605
vn 0.685690 -0.605213 0.404370
vn 0.729820 -0.568377 0.379772
vn 0.685690 0.000000 0.727866
vn 0.729820 0.000000 0.683584
vn 0.685690 0.605213 0.404370
vn 0.729820 0.568377 0.379772
vn 0.685690 0.605213 -0.404370
vn 0.729820 0.568377 -0.379772
vn 0.685690 0.000000 -0.727866
vn 0.729820 0.000000 -0.683584
vn 0.685690 -0.605213 -0.404370
vn 0.729820 -0.568377 -0.379772
vn 0.685690 -0.672475 0.278542
vn 0.729820 -0.631550 0.261574
vn 0.685690 -0.142003 0.713889
vn 0.729820 -0.133335 0.670461
vn 0.685690 0.514664 0.514664
vn 0.729820 0.483383 0.483383
vn 0.520890 -0.603595 0.603595
vn -1.000000 0.000000 0.000000
vn 0.520890 -0.709738 0.474227
vn 0.520890 0.166509 0.837184
vn 0.520890 0.000000 0.853603
vn 0.520890 0.788629 0.326640
vn 0.520890 0.709738 0.474227
vn 0.520890 0.709738 -0.474227
vn 0.520890 0.788629 -0.326640
vn 0.520890 0.000000 -0.853603
vn 0.520890 0.166509 -0.837184
vn 0.520890 -0.709738 -0.474227
vn 0.520890 -0.603595 -0.603595
vn 0.520890 -0.788629 0.326640
vn 0.520890 -0.166509 0.837184
vn 0.520890 0.603595 0.603595
vn 0.520890 0.837184 -0.166509
vn 0.520890 0.326640 -0.788629
vn 0.520890 -0.474227 -0.709738
vn 0.520890 -0.837184 0.166509
vn 0.520890 -0.326640 0.788629
vn 0.520890 0.474227 0.709738
vn 0.520890 0.853603 0.000000
vn 0.520890 0.474227 -0.709738
vn 0.520890 -0.326640 -0.788629
vn 0.520890 -0.853603 0.000000
vn 0.520890 -0.837184 -0.166509
vn 0.520890 -0.474227 0.709738
vn 0.520890 0.326640 0.788629
vn 0.520890 0.837184 0.166509
vn 0.520890 0.603595 -0.603595
vn 0.520890 -0.166509 -0.837184
vn 0.520890 -0.788629 -0.326640
vn 0.000000 0.000000 1.000000
vn 0.000000 0.000000 -1.000000
s off
f 62//1 61//1 29//1 30//1
f 57//2 56//2 24//2 25//2
f 52//3 51//3 19//3 20//3
f 47//4 46//4 14//4 15//4
f 42//5 41//5 9//5 10//5
f 37//6 36//6 4//6 5//6
f 63//7 62//7 30//7 31//7
f 58//8 57//8 25//8 26//8
f 53//9 52//9 20//9 21//9
f 48//10 47//10 15//10 16//10
f 43//11 42//11 10//11 11//11
f 38//4 37//4 5//4 6//4
f 64//2 63//2 31//2 32//2
f 59//11 58//11 26//11 27//11
f 54//4 53//4 21//4 22//4
f 49//12 48//12 16//12 17//12
f 44//11 43//11 11//11 12//11
f 39//13 38//13 6//13 7//13
f 65//14 64//14 32//14 33//14
f 60//5 59//5 27//5 28//5
f 55//11 54//11 22//11 23//11
f 50//15 49//15 17//15 18//15
f 45//11 44//11 12//11 13//11
f 40//5 39//5 7//5 8//5
f 35//1 34//1 2//1 3//1
f 65//4 33//4 2//4 34//4
f 61//5 60//5 28//5 29//5
f 56//6 55//6 23//6 24//6
f 51//4 50//4 18//4 19//4
f 46//11 45//11 13//11 14//11
f 41//16 40//16 8//16 9//16
f 36//17 35//17 3//17 4//17
f 67//11 97//11 66//11
f 67//11 94//11 97//11
f 94//11 71//11 93//11
f 69//11 67//11 68//11
f 70//11 67//11 69//11
f 97//11 94//11 96//11
f 94//11 67//11 70//11
f 70//11 71//11 94//11
f 84//11 82//11 83//11
f 71//11 92//11 93//11
f 72//11 92//11 71//11
f 72//11 90//11 92//11
f 90//11 75//11 89//11
f 74//11 72//11 73//11
f 90//11 72//11 74//11
f 74//11 75//11 90//11
f 78//11 88//11 77//11
f 75//11 88//11 89//11
f 76//11 88//11 75//11
f 76//11 77//11 88//11
f 84//11 86//11 82//11
f 87//11 88//11 86//11
f 78//11 82//11 88//11
f 79//11 82//11 78//11
f 88//11 82//11 86//11
f 82//11 79//11 81//11
f 81//11 79//11 80//11
f 96//11 94//11 95//11
f 85//11 86//11 84//11
f 92//11 90//11 91//11
s 1
f 97//18 96//19 64//20 65//21
f 92//22 91//23 59//24 60//25
f 87//26 86//27 54//28 55//29
f 82//30 81//31 49//32 50//33
f 77//34 76//35 44//36 45//37
f 72//38 71//39 39//40 40//41
f 67//42 66//43 34//44 35//45
f 97//18 65//21 34//44 66//43
f 93//46 92//22 60//25 61//47
f 88//48 87//26 55//29 56//49
f 83//50 82//30 50//33 51//51
f 78//52 77//34 45//37 46//53
f 73//54 72//38 40//41 41//55
f 68//56 67//42 35//45 36//57
f 94//58 93//46 61//47 62//59
f 89//60 88//48 56//49 57//61
f 84//62 83//50 51//51 52//63
f 79//64 78//52 46//53 47//65
f 74//66 73//54 41//55 42//67
f 69//68 68//56 36//57 37//69
f 95//70 94//58 62//59 63//71
f 90//72 89//60 57//61 58//73
f 85//74 84//62 52//63 53//75
f 80//76 79//64 47//65 48//77
f 75//78 74//66 42//67 43//79
f 70//80 69//68 37//69 38//81
f 96//19 95//70 63//71 64//20
f 91//23 90//72 58//73 59//24
f 86//27 85//74 53//75 54//28
f 81//31 80//76 48//77 49//32
f 76//35 75//78 43//79 44//36
f 71//39 70//80 38//81 39//40
f 30//82 1//83 31//84
f 25//85 1//83 26//86
f 20//87 1//83 21//88
f 15//89 1//83 16//90
f 10//91 1//83 11//92
f 5//93 1//83 6//94
f 31//84 1//83 32//95
f 26//86 1//83 27//96
f 21//88 1//83 22//97
f 16//90 1//83 17//98
f 11//92 1//83 12//99
f 6//94 1//83 7//100
f 32//95 1//83 33//101
f 27//96 1//83 28//102
f 22//97 1//83 23//103
f 17//98 1//83 18//104
f 12//99 1//83 13//105
f 7//100 1//83 8//106
f 2//107 1//83 3//108
f 33//101 1//83 2//107
f 28//102 1//83 29//109
f 23//103 1//83 24//110
f 18//104 1//83 19//111
f 13//105 1//83 14//112
f 8//106 1//83 9//113
f 3//108 1//83 4//114
f 29//109 1//83 30//82
f 24//110 1//83 25//85
f 19//111 1//83 20//87
f 14//112 1//83 15//89
f 9//113 1//83 10//91
f 4//114 1//83 5//93
f 98//115 101//115 99//115
f 100//116 102//116 103//116
